<svg width="120" height="120" viewBox="0 0 120 120" fill="none" xmlns="http://www.w3.org/2000/svg">
<path d="M78.75 15C79.7855 15 80.625 14.1605 80.625 13.125C80.625 12.0895 79.7855 11.25 78.75 11.25C77.7145 11.25 76.875 12.0895 76.875 13.125C76.875 14.1605 77.7145 15 78.75 15Z" fill="#CA2223"/>
<path d="M86.25 15C87.2855 15 88.125 14.1605 88.125 13.125C88.125 12.0895 87.2855 11.25 86.25 11.25C85.2145 11.25 84.375 12.0895 84.375 13.125C84.375 14.1605 85.2145 15 86.25 15Z" fill="#CA2223"/>
<path d="M58.125 11.25H73.125V15H58.125V11.25Z" fill="#CA2223"/>
<path d="M58.125 105H73.125V108.75H58.125V105Z" fill="#CA2223"/>
<path d="M114.375 105H108.75V50.3032C108.75 46.6792 107.41 43.1833 104.986 40.4886C102.563 37.7939 99.2287 36.091 95.625 35.7077V9.375C95.6233 7.88368 95.0301 6.45393 93.9756 5.39941C92.9211 4.34489 91.4913 3.75171 90 3.75H41.25C39.7587 3.75171 38.3289 4.34489 37.2744 5.39941C36.2199 6.45393 35.6267 7.88368 35.625 9.375V26.25H5.625C5.12773 26.25 4.65083 26.4476 4.2992 26.7992C3.94758 27.1508 3.75002 27.6277 3.75 28.125V91.875C3.75002 92.3723 3.94758 92.8492 4.2992 93.2008C4.65083 93.5524 5.12773 93.75 5.625 93.75H35.625V110.625C35.6267 112.116 36.2199 113.546 37.2744 114.601C38.3289 115.655 39.7587 116.248 41.25 116.25H90C91.4913 116.248 92.9211 115.655 93.9756 114.601C95.0301 113.546 95.6233 112.116 95.625 110.625V108.75H112.5V116.25H116.25V106.875C116.25 106.378 116.052 105.901 115.701 105.549C115.349 105.198 114.872 105 114.375 105ZM41.25 7.5H90C90.4971 7.50057 90.9737 7.6983 91.3252 8.0498C91.6767 8.40131 91.8744 8.87789 91.875 9.375V19.0726C91.273 18.8588 90.6388 18.7497 90 18.75H41.25C40.6112 18.7497 39.977 18.8588 39.375 19.0726V9.375C39.3756 8.87789 39.5733 8.40131 39.9248 8.0498C40.2763 7.6983 40.7529 7.50057 41.25 7.5ZM73.125 93.75V90H7.5V30H73.125V26.25H39.375V24.375C39.3756 23.8779 39.5733 23.4013 39.9248 23.0498C40.2763 22.6983 40.7529 22.5006 41.25 22.5H90C90.4971 22.5006 90.9737 22.6983 91.3252 23.0498C91.6767 23.4013 91.8744 23.8779 91.875 24.375V48.0883C90.2864 46.9039 88.3083 46.3648 86.3384 46.5795C84.3685 46.7942 82.5529 47.7467 81.2567 49.2455C79.9605 50.7443 79.2798 52.6782 79.3514 54.6585C79.423 56.6387 80.2417 58.5184 81.6428 59.9197L91.0984 69.375L89.9057 70.5675C86.7458 73.7347 84.9711 78.026 84.9711 82.5C84.9711 86.974 86.7458 91.2653 89.9057 94.4325L91.7543 96.2809C91.6206 96.6384 91.381 96.9466 91.0676 97.1644C90.7541 97.3823 90.3817 97.4993 90 97.5H41.25C40.7529 97.4994 40.2763 97.3017 39.9248 96.9502C39.5733 96.5987 39.3756 96.1221 39.375 95.625V93.75H73.125ZM91.875 110.625C91.8744 111.122 91.6767 111.599 91.3252 111.95C90.9737 112.302 90.4971 112.499 90 112.5H41.25C40.7529 112.499 40.2763 112.302 39.9248 111.95C39.5733 111.599 39.3756 111.122 39.375 110.625V100.927C39.977 101.141 40.6112 101.25 41.25 101.25H90C90.6388 101.25 91.273 101.141 91.875 100.927V110.625ZM95.625 105V95.625C95.625 95.1277 95.4275 94.6508 95.0759 94.2991L92.5575 91.7807C90.0997 89.3174 88.7193 85.9798 88.7193 82.5C88.7193 79.0202 90.0997 75.6826 92.5575 73.2193L95.0759 70.7009C95.4275 70.3492 95.6251 69.8723 95.6251 69.375C95.6251 68.8777 95.4275 68.4008 95.0759 68.0491L84.2947 57.2678C83.9148 56.8879 83.6134 56.4369 83.4078 55.9406C83.2022 55.4442 83.0964 54.9123 83.0964 54.375C83.0964 53.8377 83.2022 53.3058 83.4078 52.8094C83.6134 52.3131 83.9148 51.8621 84.2947 51.4822C85.0619 50.7149 86.1025 50.2839 87.1875 50.2839C87.7247 50.2839 88.2567 50.3897 88.7531 50.5953C89.2495 50.8009 89.7004 51.1023 90.0803 51.4822L96.1741 57.5759C96.5257 57.9276 97.0027 58.1251 97.5 58.1251C97.9973 58.1251 98.4743 57.9276 98.8259 57.5759C99.1776 57.2243 99.3751 56.7473 99.3751 56.25C99.3751 55.7527 99.1776 55.2757 98.8259 54.9241L95.625 51.7234V39.4837C98.2275 39.8585 100.608 41.1586 102.33 43.1457C104.051 45.1329 104.999 47.6739 105 50.3032V105H95.625Z" fill="#CA2223"/>
<path d="M67.5 35.625H80.625V39.375H67.5V35.625Z" fill="#CA2223"/>
<path d="M84.375 35.625H88.125V39.375H84.375V35.625Z" fill="#CA2223"/>
<path d="M67.5 43.125H78.75V46.875H67.5V43.125Z" fill="#CA2223"/>
<path d="M67.5 50.625H75V54.375H67.5V50.625Z" fill="#CA2223"/>
<path d="M67.5 58.125H76.875V61.875H67.5V58.125Z" fill="#CA2223"/>
<path d="M67.5 65.625H82.5V69.375H67.5V65.625Z" fill="#CA2223"/>
<path d="M67.5 73.125H78.75V76.875H67.5V73.125Z" fill="#CA2223"/>
<path d="M67.5 80.625H75V84.375H67.5V80.625Z" fill="#CA2223"/>
<path d="M78.75 80.625H82.5V84.375H78.75V80.625Z" fill="#CA2223"/>
<path d="M13.106 48.7499H24.3749C24.8722 48.7499 25.3491 48.5524 25.7007 48.2007C26.0524 47.8491 26.2499 47.3722 26.2499 46.8749V35.606C26.2499 35.1087 26.0524 34.6318 25.7007 34.2802C25.3491 33.9285 24.8722 33.731 24.3749 33.731H13.106C12.6087 33.731 12.1318 33.9285 11.7802 34.2802C11.4285 34.6318 11.231 35.1087 11.231 35.606V46.8749C11.231 47.3722 11.4285 47.8491 11.7802 48.2007C12.1318 48.5524 12.6087 48.7499 13.106 48.7499ZM14.981 37.4809H22.4999V44.9999H14.981V37.4809Z" fill="#CA2223"/>
<path d="M31.856 48.7499H43.1249C43.6222 48.7499 44.0991 48.5524 44.4507 48.2007C44.8024 47.8491 44.9999 47.3722 44.9999 46.8749V35.606C44.9999 35.1087 44.8024 34.6318 44.4507 34.2802C44.0991 33.9285 43.6222 33.731 43.1249 33.731H31.856C31.3587 33.731 30.8818 33.9285 30.5302 34.2802C30.1785 34.6318 29.981 35.1087 29.981 35.606V46.8749C29.981 47.3722 30.1785 47.8491 30.5302 48.2007C30.8818 48.5524 31.3587 48.7499 31.856 48.7499ZM33.731 37.4809H41.2499V44.9999H33.731V37.4809Z" fill="#CA2223"/>
<path d="M61.894 33.731H50.625C50.1277 33.731 49.6508 33.9285 49.2992 34.2802C48.9476 34.6318 48.75 35.1087 48.75 35.606V46.8749C48.75 47.3722 48.9476 47.8491 49.2992 48.2007C49.6508 48.5524 50.1277 48.7499 50.625 48.7499H61.894C62.3913 48.7499 62.8682 48.5524 63.2198 48.2007C63.5714 47.8491 63.769 47.3722 63.769 46.8749V35.606C63.769 35.1087 63.5714 34.6318 63.2198 34.2802C62.8682 33.9285 62.3913 33.731 61.894 33.731ZM60.019 44.9999H52.5V37.481H60.019V44.9999Z" fill="#CA2223"/>
<path d="M61.894 52.481H50.625C50.1277 52.481 49.6508 52.6785 49.2992 53.0302C48.9476 53.3818 48.75 53.8587 48.75 54.356V65.6249C48.75 66.1222 48.9476 66.5991 49.2992 66.9507C49.6508 67.3024 50.1277 67.4999 50.625 67.4999H61.894C62.3913 67.4999 62.8682 67.3024 63.2198 66.9507C63.5714 66.5991 63.769 66.1222 63.769 65.6249V54.356C63.769 53.8587 63.5714 53.3818 63.2198 53.0302C62.8682 52.6785 62.3913 52.481 61.894 52.481ZM60.019 63.75H52.5V56.231H60.019V63.75Z" fill="#CA2223"/>
<path d="M31.856 67.4999H43.1249C43.6222 67.4999 44.0991 67.3024 44.4507 66.9507C44.8024 66.5991 44.9999 66.1222 44.9999 65.6249V54.356C44.9999 53.8587 44.8024 53.3818 44.4507 53.0302C44.0991 52.6785 43.6222 52.481 43.1249 52.481H31.856C31.3587 52.481 30.8818 52.6785 30.5302 53.0302C30.1785 53.3818 29.981 53.8587 29.981 54.356V65.6249C29.981 66.1222 30.1785 66.5991 30.5302 66.9507C30.8818 67.3024 31.3587 67.4999 31.856 67.4999ZM33.731 56.2309H41.2499V63.7499H33.731V56.2309Z" fill="#CA2223"/>
<path d="M24.394 52.481H13.125C12.6277 52.481 12.1508 52.6785 11.7992 53.0302C11.4476 53.3818 11.25 53.8587 11.25 54.356V65.6249C11.25 66.1222 11.4476 66.5991 11.7992 66.9507C12.1508 67.3024 12.6277 67.4999 13.125 67.4999H24.394C24.8913 67.4999 25.3682 67.3024 25.7198 66.9507C26.0714 66.5991 26.269 66.1222 26.269 65.6249V54.356C26.269 53.8587 26.0714 53.3818 25.7198 53.0302C25.3682 52.6785 24.8913 52.481 24.394 52.481ZM22.519 63.75H15V56.231H22.519V63.75Z" fill="#CA2223"/>
<path d="M24.394 71.231H13.125C12.6277 71.231 12.1508 71.4285 11.7992 71.7802C11.4476 72.1318 11.25 72.6087 11.25 73.106V84.3749C11.25 84.8722 11.4476 85.3491 11.7992 85.7007C12.1508 86.0524 12.6277 86.2499 13.125 86.2499H24.394C24.8913 86.2499 25.3682 86.0524 25.7198 85.7007C26.0714 85.3491 26.269 84.8722 26.269 84.3749V73.106C26.269 72.6087 26.0714 72.1318 25.7198 71.7802C25.3682 71.4285 24.8913 71.231 24.394 71.231ZM22.519 82.5H15V74.981H22.519V82.5Z" fill="#CA2223"/>
<path d="M43.144 71.231H31.875C31.3777 71.231 30.9008 71.4285 30.5492 71.7802C30.1976 72.1318 30 72.6087 30 73.106V84.3749C30 84.8722 30.1976 85.3491 30.5492 85.7007C30.9008 86.0524 31.3777 86.2499 31.875 86.2499H43.144C43.6413 86.2499 44.1182 86.0524 44.4698 85.7007C44.8214 85.3491 45.019 84.8722 45.019 84.3749V73.106C45.019 72.6087 44.8214 72.1318 44.4698 71.7802C44.1182 71.4285 43.6413 71.231 43.144 71.231ZM41.269 82.5H33.75V74.981H41.269V82.5Z" fill="#CA2223"/>
<path d="M61.8749 71.231H50.606C50.1087 71.231 49.6318 71.4285 49.2802 71.7802C48.9285 72.1318 48.731 72.6087 48.731 73.106V84.3749C48.731 84.8722 48.9285 85.3491 49.2802 85.7007C49.6318 86.0524 50.1087 86.2499 50.606 86.2499H61.8749C62.3722 86.2499 62.8491 86.0524 63.2007 85.7007C63.5524 85.3491 63.7499 84.8722 63.7499 84.3749V73.106C63.7499 72.6087 63.5524 72.1318 63.2007 71.7802C62.8491 71.4285 62.3722 71.231 61.8749 71.231ZM59.9999 82.4999H52.481V74.981H59.9999V82.4999Z" fill="#CA2223"/>
</svg>
