<svg width="120" height="120" viewBox="0 0 120 120" fill="none" xmlns="http://www.w3.org/2000/svg">
<path d="M11.25 101.25H15C15 100.255 15.3951 99.3016 16.0984 98.5983C16.8016 97.8951 17.7554 97.5 18.75 97.5V93.75C16.7609 93.75 14.8532 94.5402 13.4467 95.9467C12.0402 97.3532 11.25 99.2609 11.25 101.25Z" fill="#CA2223"/>
<path d="M24.375 80.625C24.3722 82.4289 24.7471 84.2135 25.4756 85.8637L28.9088 84.3637C28.3899 83.1857 28.1229 81.9122 28.125 80.625C28.128 78.1395 29.1167 75.7567 30.8742 73.9992C32.6317 72.2417 35.0145 71.253 37.5 71.25V67.5C34.0203 67.504 30.6842 68.8881 28.2236 71.3486C25.7631 73.8092 24.379 77.1453 24.375 80.625Z" fill="#CA2223"/>
<path d="M116.25 58.125V50.625C116.25 50.2063 116.109 49.7997 115.851 49.4701C115.593 49.1404 115.232 48.9067 114.825 48.8063L112.406 48.2062L113.7 46.05C113.91 45.6905 113.996 45.272 113.946 44.8588C113.895 44.4455 113.71 44.0604 113.419 43.7625L108.113 38.4562C107.815 38.1654 107.43 37.9803 107.016 37.9295C106.603 37.8787 106.185 37.9649 105.825 38.175L103.669 39.4688L103.069 37.05C102.968 36.6435 102.735 36.2823 102.405 36.0241C102.075 35.7658 101.669 35.6253 101.25 35.625H93.75C93.3313 35.6253 92.9247 35.7658 92.5951 36.0241C92.2655 36.2823 92.0318 36.6435 91.9313 37.05L91.3313 39.4688L89.175 38.175C88.8156 37.9649 88.3971 37.8787 87.9838 37.9295C87.5706 37.9803 87.1854 38.1654 86.8876 38.4562L81.5813 43.7625C81.2904 44.0604 81.1054 44.4455 81.0546 44.8588C81.0037 45.272 81.09 45.6905 81.3 46.05L82.125 47.4188C80.3983 47.0579 78.6391 46.8757 76.875 46.875C76.2375 46.875 75.6188 46.9125 75 46.95V13.125H74.55C71.775 6.975 55.5 3.75 39.375 3.75C21.675 3.75 3.75005 7.6125 3.75005 15V71.25C3.75005 75.9563 10.575 78.675 16.8938 80.175C16.8938 80.325 16.875 80.475 16.875 80.625C16.8724 82.54 17.1374 84.4459 17.6625 86.2875C13.7834 86.5622 10.1626 88.3327 7.56367 91.2257C4.96478 94.1186 3.59099 97.9078 3.73205 101.794C3.8731 105.68 5.51797 109.36 8.31975 112.057C11.1215 114.754 14.8612 116.257 18.75 116.25H101.25C105.228 116.25 109.044 114.67 111.857 111.857C114.67 109.044 116.25 105.228 116.25 101.25C116.25 97.2718 114.67 93.4564 111.857 90.6434C109.044 87.8304 105.228 86.25 101.25 86.25H99.6C101.917 82.2644 103.133 77.735 103.125 73.125C103.125 72.6375 103.088 72.1688 103.069 71.7L103.669 69.2812L105.825 70.575C106.185 70.7851 106.603 70.8713 107.016 70.8205C107.43 70.7697 107.815 70.5846 108.113 70.2938L113.419 64.9875C113.71 64.6896 113.895 64.3045 113.946 63.8912C113.996 63.478 113.91 63.0595 113.7 62.7L112.406 60.5438L114.825 59.9437C115.232 59.8433 115.593 59.6096 115.851 59.2799C116.109 58.9503 116.25 58.5437 116.25 58.125ZM39.375 7.5C60 7.5 71.25 12.45 71.25 15C71.25 17.55 60 22.5 39.375 22.5C18.75 22.5 7.50005 17.55 7.50005 15C7.50005 12.45 18.75 7.5 39.375 7.5ZM7.50005 20.2875C13.6688 24.2062 26.55 26.25 39.375 26.25C52.2 26.25 65.0813 24.2062 71.25 20.2875V33.75C71.25 36.3 60 41.25 39.375 41.25C18.75 41.25 7.50005 36.3 7.50005 33.75V20.2875ZM7.50005 39.0375C13.6688 42.9562 26.55 45 39.375 45C52.2 45 65.0813 42.9562 71.25 39.0375V47.5125C64.5093 49.0174 58.6303 53.1118 54.8813 58.9125C49.7464 59.6563 44.5635 60.0197 39.375 60C18.75 60 7.50005 55.05 7.50005 52.5V39.0375ZM52.7063 63C52.3341 63.8822 52.0086 64.7835 51.7313 65.7C50.8116 64.8423 49.8205 64.0645 48.7688 63.375C50.1188 63.2625 51.4313 63.15 52.7063 63ZM17.3063 76.4062C10.1625 74.6438 7.50005 72.4125 7.50005 71.25V57.7875C11.6063 60.3937 18.6563 62.175 26.7375 63.075C24.3425 64.54 22.271 66.4776 20.6495 68.7697C19.028 71.0617 17.8904 73.6601 17.3063 76.4062ZM101.25 90C104.234 90 107.095 91.1853 109.205 93.295C111.315 95.4048 112.5 98.2663 112.5 101.25C112.5 104.234 111.315 107.095 109.205 109.205C107.095 111.315 104.234 112.5 101.25 112.5H18.75C15.7664 112.5 12.9049 111.315 10.7951 109.205C8.68531 107.095 7.50005 104.234 7.50005 101.25C7.50005 98.2663 8.68531 95.4048 10.7951 93.295C12.9049 91.1853 15.7664 90 18.75 90H20.325C20.6366 89.9993 20.9433 89.922 21.218 89.7749C21.4926 89.6277 21.7269 89.4153 21.9 89.1562C22.0661 88.8932 22.1665 88.594 22.1926 88.2839C22.2187 87.9739 22.1698 87.6622 22.05 87.375C21.1018 85.2515 20.6161 82.9506 20.625 80.625C20.6259 77.0483 21.7632 73.5644 23.8728 70.676C25.9823 67.7877 28.9551 65.6444 32.362 64.5553C35.7688 63.4663 39.4336 63.4879 42.8274 64.6171C46.2212 65.7462 49.1684 67.9245 51.2438 70.8375C51.4599 71.1437 51.7636 71.3774 52.115 71.5079C52.4663 71.6385 52.8489 71.6596 53.2125 71.5687C53.5753 71.479 53.9031 71.283 54.1536 71.0057C54.4042 70.7284 54.5662 70.3825 54.6188 70.0125C55.3806 64.6462 58.049 59.7336 62.1359 56.1735C66.2229 52.6133 71.455 50.6437 76.875 50.625C77.5126 50.625 78.1313 50.6625 78.75 50.7V58.125C78.7504 58.5437 78.8909 58.9503 79.1491 59.2799C79.4074 59.6096 79.7685 59.8433 80.175 59.9437L82.5938 60.5438L81.3 62.7C81.09 63.0595 81.0037 63.478 81.0546 63.8912C81.1054 64.3045 81.2904 64.6896 81.5813 64.9875L86.8876 70.2938C87.1854 70.5846 87.5706 70.7697 87.9838 70.8205C88.3971 70.8713 88.8156 70.7851 89.175 70.575L91.3313 69.2812L91.9313 71.7C92.0318 72.1065 92.2655 72.4677 92.5951 72.7259C92.9247 72.9842 93.3313 73.1247 93.75 73.125H99.375C99.3897 78.1482 97.6972 83.0274 94.575 86.9625C94.3561 87.2395 94.2199 87.5728 94.182 87.9238C94.1441 88.2749 94.2061 88.6295 94.3609 88.9469C94.5156 89.2642 94.7569 89.5315 95.0568 89.7178C95.3568 89.9041 95.7032 90.0019 96.0563 90H101.25ZM112.5 56.6625L109.05 57.525C108.765 57.6002 108.501 57.7388 108.277 57.9303C108.053 58.1218 107.875 58.3614 107.756 58.6313C107.648 58.9038 107.603 59.1977 107.626 59.4903C107.648 59.7828 107.738 60.0662 107.888 60.3187L109.725 63.3563L106.481 66.6L103.444 64.7625C103.191 64.613 102.908 64.5234 102.615 64.5007C102.323 64.4779 102.029 64.5226 101.756 64.6313C101.486 64.7498 101.247 64.9277 101.055 65.1517C100.864 65.3757 100.725 65.64 100.65 65.925L99.7876 69.375H95.2125L94.3501 65.925C94.2748 65.64 94.1363 65.3757 93.9448 65.1517C93.7532 64.9277 93.5136 64.7498 93.2438 64.6313C92.9712 64.5226 92.6773 64.4779 92.3848 64.5007C92.0922 64.5234 91.8088 64.613 91.5563 64.7625L88.5188 66.6L85.275 63.3563L87.1125 60.3187C87.262 60.0662 87.3516 59.7828 87.3744 59.4903C87.3971 59.1977 87.3525 58.9038 87.2438 58.6313C87.1252 58.3614 86.9473 58.1218 86.7233 57.9303C86.4993 57.7388 86.235 57.6002 85.9501 57.525L82.5 56.6625V52.0875L85.9501 51.225C86.235 51.1498 86.4993 51.0112 86.7233 50.8197C86.9473 50.6282 87.1252 50.3886 87.2438 50.1187C87.3525 49.8462 87.3971 49.5523 87.3744 49.2597C87.3516 48.9672 87.262 48.6838 87.1125 48.4313L85.275 45.3937L88.5188 42.15L91.5563 43.9875C91.8088 44.137 92.0922 44.2266 92.3848 44.2493C92.6773 44.2721 92.9712 44.2274 93.2438 44.1188C93.5136 44.0002 93.7532 43.8223 93.9448 43.5983C94.1363 43.3743 94.2748 43.11 94.3501 42.825L95.2125 39.375H99.7876L100.65 42.825C100.725 43.11 100.864 43.3743 101.055 43.5983C101.247 43.8223 101.486 44.0002 101.756 44.1188C102.029 44.2274 102.323 44.2721 102.615 44.2493C102.908 44.2266 103.191 44.137 103.444 43.9875L106.481 42.15L109.725 45.3937L107.888 48.4313C107.738 48.6838 107.648 48.9672 107.626 49.2597C107.603 49.5523 107.648 49.8462 107.756 50.1187C107.875 50.3886 108.053 50.6282 108.277 50.8197C108.501 51.0112 108.765 51.1498 109.05 51.225L112.5 52.0875V56.6625Z" fill="#CA2223"/>
<path d="M97.5 46.875C96.0166 46.875 94.5666 47.3149 93.3332 48.139C92.0999 48.9631 91.1386 50.1344 90.5709 51.5049C90.0032 52.8753 89.8547 54.3833 90.1441 55.8382C90.4335 57.293 91.1478 58.6294 92.1967 59.6783C93.2456 60.7272 94.582 61.4415 96.0368 61.7309C97.4917 62.0203 98.9997 61.8718 100.37 61.3041C101.741 60.7365 102.912 59.7752 103.736 58.5418C104.56 57.3084 105 55.8584 105 54.375C105 52.3859 104.21 50.4782 102.803 49.0717C101.397 47.6652 99.4891 46.875 97.5 46.875ZM97.5 58.125C96.7583 58.125 96.0333 57.9051 95.4166 57.493C94.7999 57.081 94.3193 56.4953 94.0355 55.8101C93.7516 55.1248 93.6774 54.3708 93.8221 53.6434C93.9668 52.916 94.3239 52.2478 94.8484 51.7234C95.3728 51.1989 96.041 50.8418 96.7684 50.6971C97.4958 50.5524 98.2498 50.6266 98.9351 50.9105C99.6203 51.1943 100.206 51.6749 100.618 52.2916C101.03 52.9083 101.25 53.6333 101.25 54.375C101.25 55.3696 100.855 56.3234 100.152 57.0267C99.4484 57.7299 98.4946 58.125 97.5 58.125Z" fill="#CA2223"/>
</svg>
