<svg width="120" height="120" viewBox="0 0 120 120" fill="none" xmlns="http://www.w3.org/2000/svg">
<g clip-path="url(#clip0)">
<path d="M60 31.2286L74.2487 19.3548H92.9033V0H46.4517V19.3548H60V31.2286ZM50.3226 15.4839V3.87097H89.0323V15.4839H72.8481L63.871 22.965V15.4839H50.3226Z" fill="#CA2223"/>
<path d="M54.1934 7.7417H58.0643V11.6127H54.1934V7.7417Z" fill="#CA2223"/>
<path d="M61.9355 7.7417H77.4194V11.6127H61.9355V7.7417Z" fill="#CA2223"/>
<path d="M81.2905 7.7417H85.1615V11.6127H81.2905V7.7417Z" fill="#CA2223"/>
<path d="M98.5254 116.129L96.9604 100.461C103.423 99.4392 108.387 93.8435 108.387 87.0967V61.9355H100.645V59.2609C100.645 56.6299 99.1992 54.2672 96.8744 53.0557C99.186 50.9321 100.645 47.8956 100.645 44.5161V40.6451C100.645 34.2405 95.4369 29.0322 89.0323 29.0322C82.6276 29.0322 77.4193 34.2405 77.4193 40.6451V44.5161C77.4193 49.5268 80.6146 53.7928 85.0706 55.4183L74.6825 65.8064H63.8284C63.612 62.58 61.3959 59.7675 58.2564 58.8697L50.3226 56.6053V53.1483C52.6918 51.021 54.1935 47.9457 54.1935 44.5161V40.6451C54.1935 34.2405 48.9853 29.0322 42.5806 29.0322C36.176 29.0322 30.9677 34.2405 30.9677 40.6451V44.5161C30.9677 47.9438 32.4694 51.0191 34.8387 53.1483V56.6072L26.9049 58.8716C23.5991 59.8138 21.2903 62.8758 21.2903 66.3158V73.5484H13.5484V85.1613H17.4194V116.129H0V120H120V116.129H98.5254ZM81.2903 85.1613V76.2853L95.005 62.5705C95.9964 61.5792 96.5861 60.2476 96.7184 58.8583C96.7354 58.9935 96.7742 59.1211 96.7742 59.2609V83.2258C96.7742 86.4267 94.1687 89.0322 90.9677 89.0322H75.4839V85.1613H81.2903ZM75.4839 100.645H85.3456L86.8936 116.129H75.4839V100.645ZM89.2354 100.645H93.0875L94.6355 116.129H90.7835L89.2354 100.645ZM100.645 83.2258V65.8064H104.516V87.0967C104.516 92.4326 100.175 96.7742 94.8387 96.7742H75.4839V92.9032H90.9677C96.3036 92.9032 100.645 88.5616 100.645 83.2258ZM81.2903 44.5161V40.6451C81.2903 36.3753 84.7625 32.9032 89.0323 32.9032C93.302 32.9032 96.7742 36.3753 96.7742 40.6451V44.5161C96.7742 48.7859 93.302 52.258 89.0323 52.258C84.7625 52.258 81.2903 48.7859 81.2903 44.5161ZM76.2853 69.6774L89.1986 56.7641C89.6031 56.3596 90.1625 56.129 90.7334 56.129C91.9298 56.129 92.9032 57.1024 92.9032 58.2989C92.9032 58.8697 92.6726 59.4292 92.2681 59.8336L78.5534 73.5484H58.0645C56.9966 73.5484 56.129 72.6808 56.129 71.6129C56.129 70.545 56.9966 69.6774 58.0645 69.6774H76.2853ZM34.8387 40.6451C34.8387 36.3753 38.3109 32.9032 42.5806 32.9032C46.8504 32.9032 50.3226 36.3753 50.3226 40.6451V44.5161C50.3226 48.7859 46.8504 52.258 42.5806 52.258C38.3109 52.258 34.8387 48.7859 34.8387 44.5161V40.6451ZM42.5806 56.129C43.9396 56.129 45.2382 55.8814 46.4516 55.4514V57.5305C45.9715 58.2715 44.638 60 42.5806 60C40.5232 60 39.1898 58.2715 38.7097 57.5305V55.4514C39.9231 55.8814 41.2216 56.129 42.5806 56.129ZM25.1613 66.3158C25.1613 64.5949 26.3171 63.0657 27.9681 62.5932L35.9416 60.3156C37.0643 61.7786 39.2493 63.8709 42.5806 63.8709C45.912 63.8709 48.097 61.7786 49.2197 60.3137L57.1932 62.5913C58.676 63.0157 59.7099 64.3047 59.9168 65.8045H58.0645C54.8636 65.8045 52.2581 68.4101 52.2581 71.611C52.2581 72.2924 52.397 72.9388 52.6143 73.5465H25.1613V66.3158ZM17.4194 77.4193H77.4193V81.2903H17.4194V77.4193ZM21.2903 92.9032H27.0968V89.0322H21.2903V85.1613H71.6129V89.0322H30.9677V92.9032H71.6129V116.129H67.0029L63.1319 108.387H29.7713L25.9003 116.129H21.2903V92.9032ZM62.6745 116.129H30.2287L32.1642 112.258H60.739L62.6745 116.129Z" fill="#CA2223"/>
</g>
<defs>
<clipPath id="clip0">
<rect width="120" height="120" fill="white"/>
</clipPath>
</defs>
</svg>
