<svg width="120" height="120" viewBox="0 0 120 120" fill="none" xmlns="http://www.w3.org/2000/svg">
<path d="M115.508 5.84109H91.5998V1.75781C91.5998 0.787031 90.813 0 89.8419 0H29.3214C28.3504 0 27.5636 0.787031 27.5636 1.75781V5.84109H4.49266C3.53406 5.84109 2.73438 6.64266 2.73438 7.59914L2.73484 53.7246C2.73484 54.6954 3.52164 55.4824 4.49266 55.4824H27.5638V68.3163C27.5638 69.2871 28.3506 70.0741 29.3216 70.0741H34.6863C34.342 70.7381 34.1104 71.4729 34.0204 72.2555L31.7092 92.2669C31.6443 92.8327 31.6136 93.4069 31.618 93.9593C31.618 98.4713 33.9128 102.188 37.232 105.045C39.1827 106.725 41.1334 108.404 43.0841 110.083V118.242C43.0841 119.213 43.8709 120 44.842 120H50.2504C51.2214 120 52.0082 119.213 52.0082 118.242C52.0082 117.271 51.2214 116.484 50.2504 116.484H46.5998V109.277C46.5998 108.765 46.3766 108.279 45.989 107.945C44.0648 106.288 42.1405 104.632 40.2163 102.975C37.3961 100.547 35.2063 97.8902 35.1337 93.9316C35.1306 93.5126 35.1538 93.0879 35.2019 92.6698L37.5131 72.6581C37.675 71.2488 38.8691 70.1859 40.2904 70.1859C41.2225 70.1859 42.0013 70.6976 42.3852 71.1356C43.0162 71.8561 43.0844 72.6649 43.0844 72.9792V87.7983C43.0844 88.7691 43.8712 89.5561 44.8422 89.5561C45.8132 89.5561 46.6 88.7691 46.6 87.7983V40.1674C46.6 38.6269 47.8534 37.3737 49.3937 37.3737C50.9296 37.3737 52.1793 38.6196 52.187 40.1536C52.187 40.158 52.1863 40.1623 52.1863 40.1667C52.1863 40.1759 52.1875 40.1848 52.1877 40.1939V62.4162C52.1877 65.1012 55.7214 65.0944 55.7174 62.438C55.717 62.0562 55.7153 60.9328 55.724 60.6412C56.0376 57.0654 62.032 57.1505 62.032 60.8245V63.4875C62.032 65.7546 65.5476 65.7546 65.5476 63.4875C65.5478 61.9448 66.8027 60.6898 68.3456 60.6898C70.0928 60.6898 71.8626 61.447 71.8626 63.4877V65.2195C71.8626 67.4637 75.3381 67.5014 75.378 65.2505C75.3843 64.8839 75.4035 64.8021 75.4675 64.5319C76.1725 61.7808 80.2473 61.7677 80.962 64.5183L83.1309 72.8723C84.6988 78.9166 84.6358 85.2888 82.9478 91.3001L78.0334 108.802C77.9898 108.957 77.968 109.117 77.968 109.277V116.484H58.6661C57.6951 116.484 56.9083 117.271 56.9083 118.242C56.9083 119.213 57.6951 120 58.6661 120H79.7259C80.6969 120 81.4837 119.213 81.4837 118.242V109.519L86.3324 92.2502C88.1882 85.6411 88.258 78.6349 86.5338 71.989L86.0366 70.0739H89.8427C90.8137 70.0739 91.6005 69.2869 91.6005 68.3161V16.4859H113.751V51.9668H98.1067C97.1357 51.9668 96.3489 52.7538 96.3489 53.7246C96.3489 54.6954 97.1357 55.4824 98.1067 55.4824H115.508C116.479 55.4824 117.266 54.6954 117.266 53.7246V7.59914V7.59891C117.265 6.62813 116.479 5.84109 115.508 5.84109ZM6.25047 9.35695H27.5638V12.9703H6.25047V9.35695ZM31.0804 3.51633H88.0834V12.9703H31.0804V3.51633ZM6.25047 51.9668V16.4859H27.5638V51.9668H6.25047ZM85.1233 66.5585L84.3641 63.6342C83.2541 59.3632 77.9713 57.5128 74.4224 60.1444C72.4991 57.075 67.9886 56.2313 64.9623 58.1587C63.3941 54.7863 58.9647 53.5369 55.7029 55.1773V41.9243H71.6934C72.6318 41.9243 73.3952 42.6888 73.3952 43.6284V47.0051C73.3952 47.9433 72.6318 48.7066 71.6934 48.7066H62.072C61.101 48.7066 60.3142 49.4937 60.3142 50.4645C60.3142 51.4352 61.101 52.2223 62.072 52.2223H71.6934C74.5701 52.2223 76.9108 49.8818 76.9108 47.0051V43.6284C76.9108 40.7503 74.5703 38.4087 71.6934 38.4087H55.4516C54.688 35.783 52.262 33.8578 49.3933 33.8578C45.9142 33.8578 43.0839 36.6884 43.0839 40.1672V66.5583H31.0792V16.4859H88.0841V66.5585H85.1233ZM91.5998 12.9703V9.35695H113.75V12.9703H91.5998Z" fill="#CA2223"/>
<path d="M69.7735 6.5708H49.3901C48.4191 6.5708 47.6323 7.35783 47.6323 8.32861C47.6323 9.29939 48.4191 10.0864 49.3901 10.0864H69.7735C70.7445 10.0864 71.5313 9.29939 71.5313 8.32861C71.5313 7.35783 70.7445 6.5708 69.7735 6.5708Z" fill="#CA2223"/>
<path d="M52.3411 19.8594H38.4614C37.4904 19.8594 36.7036 20.6464 36.7036 21.6172V29.6455C36.7036 30.6163 37.4904 31.4033 38.4614 31.4033H52.3411C53.3121 31.4033 54.0989 30.6163 54.0989 29.6455V21.6172C54.0989 20.6464 53.3121 19.8594 52.3411 19.8594ZM50.5833 27.8877H40.2192V23.375H50.5833V27.8877Z" fill="#CA2223"/>
<path d="M96.8804 29.2329H107.322C108.293 29.2329 109.08 28.4459 109.08 27.4751C109.08 26.5043 108.293 25.7173 107.322 25.7173H96.8804C95.9094 25.7173 95.1226 26.5043 95.1226 27.4751C95.1226 28.4459 95.9096 29.2329 96.8804 29.2329Z" fill="#CA2223"/>
<path d="M107.322 36.7949C108.293 36.7949 109.08 36.0079 109.08 35.0371C109.08 34.0663 108.293 33.2793 107.322 33.2793H96.8804C95.9094 33.2793 95.1226 34.0663 95.1226 35.0371C95.1226 36.0079 95.9094 36.7949 96.8804 36.7949H107.322Z" fill="#CA2223"/>
<path d="M11.5874 29.2329H22.0293C23.0003 29.2329 23.7871 28.4459 23.7871 27.4751C23.7871 26.5043 23.0003 25.7173 22.0293 25.7173H11.5874C10.6164 25.7173 9.82959 26.5043 9.82959 27.4751C9.82959 28.4459 10.6166 29.2329 11.5874 29.2329Z" fill="#CA2223"/>
<path d="M22.0293 33.2793H11.5874C10.6164 33.2793 9.82959 34.0663 9.82959 35.0371C9.82959 36.0079 10.6164 36.7949 11.5874 36.7949H22.0293C23.0003 36.7949 23.7871 36.0079 23.7871 35.0371C23.7871 34.0663 23.0003 33.2793 22.0293 33.2793Z" fill="#CA2223"/>
<path d="M79.7245 23.8735H61.0767C60.1056 23.8735 59.3188 24.6606 59.3188 25.6313C59.3188 26.6021 60.1056 27.3892 61.0767 27.3892H79.7245C80.6955 27.3892 81.4823 26.6021 81.4823 25.6313C81.4823 24.6606 80.6955 23.8735 79.7245 23.8735Z" fill="#CA2223"/>
</svg>
