<svg width="120" height="120" viewBox="0 0 120 120" fill="none" xmlns="http://www.w3.org/2000/svg">
<path d="M42.9994 75.9731L60.435 55.05L63.315 57.45L43.2506 81.5269L34.2994 72.5756L36.9506 69.9244L42.9994 75.9731ZM9.375 15C9.375 11.8988 11.8988 9.375 15 9.375C18.1012 9.375 20.625 11.8988 20.625 15C20.625 18.1012 18.1012 20.625 15 20.625C11.8988 20.625 9.375 18.1012 9.375 15ZM13.125 15C13.125 16.0331 13.9669 16.875 15 16.875C16.0331 16.875 16.875 16.0331 16.875 15C16.875 13.9669 16.0331 13.125 15 13.125C13.9669 13.125 13.125 13.9669 13.125 15ZM24.375 15C24.375 11.8988 26.8988 9.375 30 9.375C33.1012 9.375 35.625 11.8988 35.625 15C35.625 18.1012 33.1012 20.625 30 20.625C26.8988 20.625 24.375 18.1012 24.375 15ZM28.125 15C28.125 16.0331 28.9669 16.875 30 16.875C31.0331 16.875 31.875 16.0331 31.875 15C31.875 13.9669 31.0331 13.125 30 13.125C28.9669 13.125 28.125 13.9669 28.125 15ZM39.375 15C39.375 11.8988 41.8988 9.375 45 9.375C48.1012 9.375 50.625 11.8988 50.625 15C50.625 18.1012 48.1012 20.625 45 20.625C41.8988 20.625 39.375 18.1012 39.375 15ZM43.125 15C43.125 16.0331 43.9669 16.875 45 16.875C46.0331 16.875 46.875 16.0331 46.875 15C46.875 13.9669 46.0331 13.125 45 13.125C43.9669 13.125 43.125 13.9669 43.125 15ZM118.125 48.75C118.125 60.2513 110.107 69.8944 99.375 72.4444V76.875C101.443 76.875 103.125 78.5569 103.125 80.625V108.75C103.125 113.919 98.9194 118.125 93.75 118.125H7.5C4.39875 118.125 1.875 115.601 1.875 112.5V7.5C1.875 4.39875 4.39875 1.875 7.5 1.875H90C93.1012 1.875 95.625 4.39875 95.625 7.5V24.4706C108.189 25.4325 118.125 35.9419 118.125 48.75ZM5.625 7.5V24.375H91.875V7.5C91.875 6.46688 91.0331 5.625 90 5.625H7.5C6.46688 5.625 5.625 6.46688 5.625 7.5ZM7.5 114.375H86.2988C85.1081 112.804 84.375 110.869 84.375 108.75V80.625C84.375 78.5569 86.0569 76.875 88.125 76.875V72.4444C86.745 72.1162 85.4044 71.6888 84.1256 71.1375C82.2225 90.3412 68.2125 106.348 49.1569 110.582L48.75 110.67L48.3431 110.58C27.6075 105.973 13.125 87.9188 13.125 66.6769V41.25H16.0612C27.2812 41.25 38.2425 38.1075 47.7562 32.16L48.75 31.5394L49.7438 32.16C56.2594 36.2325 63.3788 38.9531 70.9181 40.2975C72.8006 35.2313 76.3088 30.9638 80.82 28.125H5.625V112.5C5.625 113.533 6.46688 114.375 7.5 114.375ZM48.75 45.2419C41.61 48.9169 33.4219 51.2944 24.375 52.3162V66.6769C24.375 81.8344 34.3725 95.1788 48.75 99.3038C63.1275 95.1788 73.125 81.8363 73.125 66.6769V61.6819C71.2819 58.755 70.0462 55.4156 69.5906 51.8306C61.9575 50.6381 54.9525 48.435 48.75 45.2419ZM69.8587 43.92C62.3756 42.5363 55.2844 39.8719 48.75 35.9494C39.105 41.7337 28.1269 44.8519 16.875 44.9944V66.6769C16.875 86.01 29.9606 102.459 48.75 106.828C66.525 102.692 79.4156 87.3506 80.5181 69.1931C79.2113 68.3438 77.9925 67.3763 76.875 66.3V66.6787C76.875 83.6981 65.5106 98.6606 49.2394 103.061L48.75 103.192L48.2606 103.059C31.9894 98.6588 20.625 83.6963 20.625 66.6769V48.9169L22.3256 48.7594C31.9294 47.8631 40.5206 45.4125 47.8631 41.4731L48.75 40.9969L49.6369 41.4712C55.4813 44.6063 62.13 46.7925 69.4125 48.0037C69.4556 46.6125 69.5925 45.2437 69.8587 43.92ZM88.125 80.625V84.375H99.375V80.625H88.125ZM99.375 108.75V88.125H88.125V108.75C88.125 111.851 90.6488 114.375 93.75 114.375C96.8512 114.375 99.375 111.851 99.375 108.75ZM95.625 73.0294C95.0044 73.0781 94.3838 73.125 93.75 73.125C93.1162 73.125 92.4956 73.0781 91.875 73.0294V76.875H95.625V73.0294ZM114.375 48.75C114.375 37.3781 105.122 28.125 93.75 28.125C82.3781 28.125 73.125 37.3781 73.125 48.75C73.125 60.1219 82.3781 69.375 93.75 69.375C105.122 69.375 114.375 60.1219 114.375 48.75ZM91.875 50.625H95.625V46.875H91.875V50.625ZM99.375 50.625H103.125V46.875H99.375V50.625ZM84.375 50.625H88.125V46.875H84.375V50.625Z" fill="#CA2223"/>
</svg>
