<svg width="120" height="120" viewBox="0 0 120 120" fill="none" xmlns="http://www.w3.org/2000/svg">
<path d="M111.956 52.1977C111.036 23.2549 88.0908 0 60 0C31.9092 0 8.96437 23.2549 8.04398 52.1977C3.37195 53.1349 0.0075 57.2348 0 61.9999V90C0.0065625 95.5202 4.47984 99.9935 10.0001 100C10.0116 109.936 18.0638 117.989 28.0001 118H46.5563C47.265 119.233 48.5775 119.996 49.9999 120H67.9999C70.2082 119.998 71.9977 118.208 72 116V108C71.9979 105.792 70.2082 104.002 67.9999 104H49.9999C48.5773 104.004 47.265 104.767 46.5563 106H28.0001C24.6879 105.996 22.0036 103.312 22.0001 99.9998H28.0001C30.2084 99.9977 31.9978 98.208 32.0002 95.9998V55.9999C31.998 53.7916 30.2084 52.0022 28.0001 51.9998H20.0965C21.1008 29.7722 38.5873 12 60 12C81.4127 12 98.8992 29.7722 99.9035 52.0001H92.0002C89.7919 52.0022 88.0024 53.7919 88.0001 56.0002V96C88.0022 98.2083 89.7919 99.9977 92.0002 100H110C115.52 99.9935 119.993 95.5202 120 90V61.9999C119.993 57.2348 116.628 53.1349 111.956 52.1977ZM49.9999 108H67.9999L68.0027 116H49.9999V108ZM28.0001 110H46.0001V114H28.0001C20.2718 113.991 14.0088 107.728 14.0002 100H18C18.0066 105.52 22.4798 109.994 28.0001 110ZM28.0001 55.9999L28.0029 96H10.0001C6.68789 95.9965 4.00359 93.3122 4.00008 90V61.9999C4.00359 58.6877 6.68789 56.0034 10.0001 55.9999H28.0001ZM60 7.99992C36.3799 7.99992 17.0545 27.5606 16.0486 51.9998H12.0487C13.0613 25.3545 34.1773 3.99984 60 3.99984C85.8227 3.99984 106.939 25.3545 107.951 51.9998H103.951C102.945 27.5609 83.6201 7.99992 60 7.99992ZM116 90C115.996 93.3122 113.312 95.9965 110 96H91.9999V55.9999H110C113.312 56.0034 115.996 58.6877 116 61.9999V90Z" fill="#CA2223"/>
<path d="M82.0003 78H78.0002V73.0001C78.0002 71.8954 77.1049 71.0001 76.0003 71.0001C74.8957 71.0001 74.0004 71.8954 74.0004 73.0001V78H65.5249L75.7076 61.0294C76.0753 60.4167 76.0882 59.6543 75.7416 59.0297C75.3949 58.4048 74.7412 58.0125 74.0266 58.0003C73.3123 57.9881 72.6455 58.3582 72.2777 58.9708L60.2777 78.9707C59.9069 79.5886 59.8973 80.358 60.2522 80.9852C60.607 81.6124 61.2719 82 61.9924 82H74.0001V88.0001C74.0001 89.1047 74.8955 90 76.0001 90C77.1047 90 78 89.1047 78 88.0001V82H82.0001C83.1047 82 84 81.1047 84 80.0001C84 78.8955 83.1049 78 82.0003 78Z" fill="#CA2223"/>
<path d="M37.1047 86.2119C36.2762 86.6274 35.8417 87.5579 36.0547 88.46C36.2678 89.3621 37.0731 89.9993 38 89.9998H56C57.1047 89.9998 58 89.1045 58 87.9999C58 86.8953 57.1047 86 56 86H44.8712C49.8088 82.291 56 76.039 56 68C56 63.841 53.4259 60.1163 49.5355 58.6458C45.6451 57.1754 41.2508 58.2664 38.5 61.3857C37.7692 62.2142 37.8484 63.4782 38.6767 64.209C39.5052 64.9397 40.7692 64.8605 41.5 64.0322C43.1502 62.1603 45.7869 61.5052 48.1213 62.3874C50.4557 63.2696 52.0002 65.5046 52 68C52.0002 78.6092 37.2531 86.1366 37.1047 86.2119Z" fill="#CA2223"/>
</svg>
