<svg width="120" height="120" viewBox="0 0 120 120" fill="none" xmlns="http://www.w3.org/2000/svg">
<path d="M36 69H62V73H36V69Z" fill="#CA2223"/>
<path d="M36 59H58V63H36V59Z" fill="#CA2223"/>
<path d="M114 15H92V7C92 5.89551 91.1045 5 90 5H30C28.8955 5 28 5.89551 28 7V15H6C2.68652 15 0 17.6865 0 21V81C0 84.3135 2.68652 87 6 87H50V99H32C30.8955 99 30 99.8955 30 101V111H26V115H94V111H90V101C90 99.8955 89.1045 99 88 99H70V87H114C117.313 87 120 84.3135 120 81V21C120 17.6865 117.313 15 114 15ZM114 19C115.104 19 116 19.8955 116 21V71H92V48.46L101.696 36.9062C104.124 34.002 104.184 29.7939 101.84 26.8213C99.4961 23.8496 95.3906 22.9268 92 24.6104V19H114ZM76.7783 60.3779L70.6504 55.2363L88.6504 33.7881L94.7783 38.9297L76.7783 60.3779ZM69.252 59.2842L73.0342 62.458L68.5 64.0225L69.252 59.2842ZM98.6318 34.334L97.3457 35.8643L91.2178 30.7217L92.5039 29.1904C93.9248 27.498 96.4482 27.2773 98.1396 28.6982C99.832 30.1182 100.053 32.6416 98.6318 34.334ZM32 9H88V28.3359L66.2998 54.2002C66.0674 54.4775 65.9131 54.8125 65.8564 55.1699L64.0244 66.6885C63.915 67.3809 64.1777 68.0801 64.7158 68.5312C65.2539 68.9814 65.9883 69.1172 66.6523 68.8877L77.6758 65.0879C78.0186 64.9717 78.3232 64.7646 78.5557 64.4883L88 53.2275V77H32V9ZM6 19H28V71H4V21C4 19.8955 4.89551 19 6 19ZM86 111H34V103H86V111ZM66 99H54V87H66V99ZM114 83H6C4.89551 83 4 82.1045 4 81V75H28V79C28 80.1045 28.8955 81 30 81H90C91.1045 81 92 80.1045 92 79V75H116V81C116 82.1045 115.104 83 114 83Z" fill="#CA2223"/>
<path d="M108 77H112V81H108V77Z" fill="#CA2223"/>
<path d="M36 13H44V17H36V13Z" fill="#CA2223"/>
<path d="M48 13H82V17H48V13Z" fill="#CA2223"/>
<path d="M36 23H82V27H36V23Z" fill="#CA2223"/>
<path d="M36 33H40V37H36V33Z" fill="#CA2223"/>
<path d="M44 33H48V37H44V33Z" fill="#CA2223"/>
<path d="M52 33H74V37H52V33Z" fill="#CA2223"/>
<path d="M36 43H48V47H36V43Z" fill="#CA2223"/>
<path d="M52 43H66V47H52V43Z" fill="#CA2223"/>
</svg>
