<svg width="120" height="120" viewBox="0 0 120 120" fill="none" xmlns="http://www.w3.org/2000/svg">
<g clip-path="url(#clip0)">
<path d="M92.25 92H88.25V100H52.25V104H88.25V110C88.25 113.313 85.5635 116 82.25 116H38.25C36.1064 115.997 34.126 114.854 33.0498 113L29.5859 115C31.3789 118.089 34.6787 119.993 38.25 120H82.25C87.7705 119.993 92.2432 115.521 92.25 110V92Z" fill="#CA2223"/>
<path d="M58.25 108H62.25V112H58.25V108Z" fill="#CA2223"/>
<path d="M70.25 54V50H64.1484C63.1514 37.2373 53.0127 27.0986 40.25 26.1016V20H36.25V26.1016C34.9023 26.2051 33.5654 26.4141 32.25 26.7256V16H64.25V12H32.25V10C32.25 6.68652 34.9365 4 38.25 4H82.25C83.7109 4 85.1221 4.5332 86.2178 5.5L88.8643 2.5C87.0381 0.887696 84.6855 -0.000975758 82.25 8.04003e-07H38.25C32.7295 0.00683675 28.2568 4.47949 28.25 10V28C19.2441 31.7725 13.1064 40.2656 12.3516 50H6.25V54H12.3564C13.2998 66.7871 23.4629 76.957 36.25 77.9082V84H40.25V77.9082C53.0371 76.957 63.2002 66.7871 64.1436 54H70.25ZM36.25 70V73.9082C33.46 73.6572 30.7451 72.873 28.25 71.5996V68C28.25 62.4775 32.7275 58 38.25 58C43.7725 58 48.25 62.4775 48.25 68V71.5996C45.7559 72.875 43.04 73.6602 40.25 73.9141V70H36.25ZM32.25 48C32.25 44.6865 34.9365 42 38.25 42C41.5635 42 44.25 44.6865 44.25 48C44.25 51.3135 41.5635 54 38.25 54C34.9365 54 32.25 51.3135 32.25 48ZM52.916 68.4004C52.7002 68.5996 52.4697 68.7598 52.25 68.9443V68C52.2451 62.7754 49.3311 57.9883 44.6924 55.584C47.9053 52.8779 49.084 48.4521 47.6436 44.5068C46.2031 40.5605 42.4502 37.9355 38.25 37.9355C34.0498 37.9355 30.2969 40.5605 28.8564 44.5068C27.416 48.4521 28.5947 52.8779 31.8076 55.584C27.1689 57.9883 24.2549 62.7754 24.25 68V68.9541C24.0283 68.7725 23.7979 68.6016 23.584 68.4102C19.4395 64.6934 16.8564 59.5449 16.3564 54H20.25V50H16.3516C17.3291 39.4414 25.6914 31.0791 36.25 30.1016V34H40.25V30.1016C50.8086 31.0791 59.1709 39.4414 60.1484 50H56.25V54H60.1436C59.6436 59.5449 57.0605 64.6934 52.916 68.4102V68.4004Z" fill="#CA2223"/>
<path d="M114.25 36C115.354 36 116.25 35.1045 116.25 34V10C116.25 8.89551 115.354 8 114.25 8H70.25C69.1455 8 68.25 8.89551 68.25 10V34C68.25 35.1045 69.1455 36 70.25 36H114.25ZM72.25 12H112.25V32H72.25V12Z" fill="#CA2223"/>
<path d="M76.25 16H84.25V20H76.25V16Z" fill="#CA2223"/>
<path d="M88.25 16H108.25V20H88.25V16Z" fill="#CA2223"/>
<path d="M76.25 24H108.25V28H76.25V24Z" fill="#CA2223"/>
<path d="M113.896 40C112.347 40.0029 110.853 40.5713 109.696 41.5996L92.2498 56.9805V40H88.2498V60H88.8279L77.45 70.04C70.0477 70.4639 64.2586 76.585 64.2498 84V87.5283C64.2576 89.5127 63.1356 91.3301 61.3563 92.21C60.5252 92.624 60.0887 93.5557 60.3016 94.459C60.5145 95.3623 61.3211 96.001 62.2498 96H76.2498C83.6649 95.9912 89.786 90.2021 90.2098 82.7998L118.662 50.5557C120.313 48.6826 120.715 46.0156 119.686 43.7393C118.659 41.4629 116.393 40 113.896 40ZM76.2498 92H67.1033C67.8582 90.6309 68.2527 89.0918 68.2498 87.5283V84C68.2567 78.79 72.2567 74.4551 77.45 74.0322L86.2176 82.7998C85.7957 87.9932 81.4598 91.9941 76.2498 92ZM115.662 47.9102L88.16 79.0801L81.1697 72.0918L112.34 44.5879C113.272 43.7695 114.68 43.8154 115.557 44.6924C116.434 45.5703 116.48 46.9775 115.662 47.9102Z" fill="#CA2223"/>
<path d="M2.25 110H46.25C47.3545 110 48.25 109.104 48.25 108V92C48.25 90.8955 47.3545 90 46.25 90H32.25V80H28.25V90H2.25C1.14551 90 0.25 90.8955 0.25 92V108C0.25 109.104 1.14551 110 2.25 110ZM4.25 94H44.25V106H4.25V94Z" fill="#CA2223"/>
<path d="M8.25 98H18.25V102H8.25V98Z" fill="#CA2223"/>
<path d="M22.25 98H40.25V102H22.25V98Z" fill="#CA2223"/>
<path d="M2.25 28H22.25C23.3545 28 24.25 27.1045 24.25 26V10C24.25 8.89551 23.3545 8 22.25 8H2.25C1.14551 8 0.25 8.89551 0.25 10V26C0.25 27.1045 1.14551 28 2.25 28ZM4.25 12H20.25V24H4.25V12Z" fill="#CA2223"/>
<path d="M8.25 16H16.25V20H8.25V16Z" fill="#CA2223"/>
</g>
<defs>
<clipPath id="clip0">
<rect width="120" height="120" fill="white"/>
</clipPath>
</defs>
</svg>
